<svg xmlns="http://www.w3.org/2000/svg" viewBox="0 0 1200 630" fill="none">
  <defs>
    <linearGradient id="bg" x1="70" y1="70" x2="1130" y2="560" gradientUnits="userSpaceOnUse">
      <stop stop-color="#94a3b8" />
      <stop offset="1" stop-color="#64748b" />
    </linearGradient>
    <linearGradient id="panel" x1="190" y1="120" x2="890" y2="470" gradientUnits="userSpaceOnUse">
      <stop stop-color="#f8fafc" />
      <stop offset="1" stop-color="#ffffff" />
    </linearGradient>
  </defs>
  <rect width="1200" height="630" rx="42" fill="#0f172a" />
  <rect x="28" y="28" width="1144" height="574" rx="34" fill="url(#bg)" />
  <g opacity=".24">
    <path d="M40 124H1160" stroke="white" />
    <path d="M40 248H1160" stroke="white" />
    <path d="M40 372H1160" stroke="white" />
    <path d="M40 496H1160" stroke="white" />
  </g>
  <circle cx="457" cy="114" r="22" fill="#475569" opacity="0.23" /><circle cx="675" cy="208" r="30" fill="#475569" opacity="0.15" /><circle cx="530" cy="73" r="50" fill="#475569" opacity="0.16" /><circle cx="556" cy="77" r="20" fill="#475569" opacity="0.24" /><circle cx="794" cy="202" r="27" fill="#475569" opacity="0.19" />
  <rect x="96" y="104" width="1008" height="422" rx="34" fill="url(#panel)" opacity=".95" />
  <rect x="140" y="148" width="144" height="42" rx="21" fill="#1e293b" opacity=".12" />
  <text x="164" y="176" fill="#1e293b" font-family="JetBrains Mono, monospace" font-size="22" font-weight="700">MISCELLANEOUS</text>
  <text x="140" y="280" fill="#1e293b" font-family="Space Grotesk, Arial, sans-serif" font-size="72" font-weight="700">Method Object</text>
  <text x="140" y="330" fill="#475569" font-family="JetBrains Mono, monospace" font-size="26" font-weight="600">miscellaneous • overview</text>
  <rect x="110" y="152" width="111" height="16" rx="8" fill="#1e293b" opacity="0.18" /><rect x="275" y="173" width="142" height="16" rx="8" fill="#1e293b" opacity="0.26" /><rect x="440" y="179" width="137" height="16" rx="8" fill="#1e293b" opacity="0.34" /><rect x="605" y="157" width="112" height="16" rx="8" fill="#1e293b" opacity="0.42" />
  <g transform="translate(885 170)">
    <rect width="140" height="140" rx="34" fill="#1e293b" opacity=".10" />
    <path d="M70 18 114 44v52l-44 26-44-26V44l44-26Z" fill="#475569" opacity=".92" />
    <path d="M47 54h31c13 0 22 7 22 17s-9 17-22 17H47V54Z" fill="white" />
  </g>
</svg>