<svg xmlns="http://www.w3.org/2000/svg" viewBox="0 0 1200 630" fill="none">
  <defs>
    <linearGradient id="bg" x1="70" y1="70" x2="1130" y2="560" gradientUnits="userSpaceOnUse">
      <stop stop-color="#c4b5fd" />
      <stop offset="1" stop-color="#8b5cf6" />
    </linearGradient>
    <linearGradient id="panel" x1="190" y1="120" x2="890" y2="470" gradientUnits="userSpaceOnUse">
      <stop stop-color="#f5f3ff" />
      <stop offset="1" stop-color="#ffffff" />
    </linearGradient>
  </defs>
  <rect width="1200" height="630" rx="42" fill="#0f172a" />
  <rect x="28" y="28" width="1144" height="574" rx="34" fill="url(#bg)" />
  <g opacity=".24">
    <path d="M40 124H1160" stroke="white" />
    <path d="M40 248H1160" stroke="white" />
    <path d="M40 372H1160" stroke="white" />
    <path d="M40 496H1160" stroke="white" />
  </g>
  <circle cx="377" cy="145" r="29" fill="#7c3aed" opacity="0.24" /><circle cx="570" cy="175" r="28" fill="#7c3aed" opacity="0.13" /><circle cx="360" cy="54" r="49" fill="#7c3aed" opacity="0.12" /><circle cx="520" cy="112" r="48" fill="#7c3aed" opacity="0.19" /><circle cx="280" cy="64" r="23" fill="#7c3aed" opacity="0.15" />
  <rect x="96" y="104" width="1008" height="422" rx="34" fill="url(#panel)" opacity=".95" />
  <rect x="140" y="148" width="144" height="42" rx="21" fill="#4c1d95" opacity=".12" />
  <text x="164" y="176" fill="#4c1d95" font-family="JetBrains Mono, monospace" font-size="22" font-weight="700">ARCHITECTURAL</text>
  <text x="140" y="280" fill="#4c1d95" font-family="Space Grotesk, Arial, sans-serif" font-size="72" font-weight="700">State Machine</text>
  <text x="140" y="330" fill="#7c3aed" font-family="JetBrains Mono, monospace" font-size="26" font-weight="600">architectural • overview</text>
  <rect x="110" y="167" width="119" height="16" rx="8" fill="#4c1d95" opacity="0.18" /><rect x="275" y="160" width="128" height="16" rx="8" fill="#4c1d95" opacity="0.26" /><rect x="440" y="174" width="121" height="16" rx="8" fill="#4c1d95" opacity="0.34" /><rect x="605" y="154" width="133" height="16" rx="8" fill="#4c1d95" opacity="0.42" />
  <g transform="translate(885 170)">
    <rect width="140" height="140" rx="34" fill="#4c1d95" opacity=".10" />
    <path d="M70 18 114 44v52l-44 26-44-26V44l44-26Z" fill="#7c3aed" opacity=".92" />
    <path d="M47 54h31c13 0 22 7 22 17s-9 17-22 17H47V54Z" fill="white" />
  </g>
</svg>